<?xml version="1.0" encoding="UTF-8"?>
<svg id="Layer_1" data-name="Layer 1" xmlns="http://www.w3.org/2000/svg" viewBox="0 0 70.63 68.89">
  <defs>
    <style>
      .cls-1 {
        fill: none;
        stroke: #231f20;
        stroke-miterlimit: 10;
        stroke-width: 6px;
      }

      .cls-2 {
        fill: #231f20;
      }
    </style>
  </defs>
  <path class="cls-1" d="M2.23,37.92c.68-.76,1.37-1.53,2.06-2.29C14.18,24.69,24.23,14.23,34.42,4.22c11.37,11.28,22.73,22.57,34.1,33.85"/>
  <path class="cls-1" d="M8.87,32.06l-.44,33.6c2.23-.16,5.1-.58,8.29-1.59,4.22-1.34,7.39-3.21,9.48-4.68"/>
  <path class="cls-1" d="M61.71,31.83c.29,11.12,.57,22.23,.86,33.35-1.75-.01-16.21-.24-25.26-5.91-2.06-1.29-5.11-3.66-7.34-5.53-1.57-1.32-3.74-3.22-6.05-6.06-2.57-3.14-2.91-4.48-3.03-5.39-.05-.36-.41-3.44,1.54-5.82,1.44-1.76,3.27-2.07,3.98-2.18,3.02-.47,5.46,1.63,5.75,1.88,1.37,1.19,1.6,2.23,2.51,2.23,1.07,0,1.32-1.42,2.84-2.65,2.3-1.86,5.13-1.37,5.45-1.3,.65,.13,3.82,.87,4.98,3.86,.12,.3,.61,1.65,.21,4.06-.51,3.08-1.99,5.07-4.55,8.33-2.57,3.27-4.73,5.93-6.3,7.84"/>
  <rect class="cls-2" x="28.47" y="17.29" width="5.17" height="4.99"/>
  <rect class="cls-2" x="35.96" y="17.41" width="5.17" height="4.99"/>
  <rect class="cls-2" x="36.08" y="23.55" width="5.17" height="4.99"/>
  <rect class="cls-2" x="28.37" y="23.55" width="5.17" height="4.99"/>
</svg>