<?xml version="1.0" encoding="UTF-8"?>
<svg id="Layer_1" data-name="Layer 1" xmlns="http://www.w3.org/2000/svg" viewBox="0 0 105.88 107.58">
  <defs>
    <style>
      .cls-1 {
        fill: none;
        stroke: #fff;
        stroke-miterlimit: 10;
        stroke-width: 6px;
      }

      .cls-2 {
        fill: #fff;
      }

      .cls-3 {
        fill: #231f20;
      }
    </style>
  </defs>
  <ellipse class="cls-3" cx="52.94" cy="53.79" rx="52.94" ry="53.79"/>
  <path class="cls-1" d="M20.8,53.03c.68-.76,1.37-1.53,2.06-2.29,9.88-10.94,19.93-21.4,30.12-31.41,11.37,11.28,22.73,22.57,34.1,33.85"/>
  <path class="cls-1" d="M27.43,47.17l-.44,33.6c2.23-.16,5.1-.58,8.29-1.59,4.22-1.34,7.39-3.21,9.48-4.68"/>
  <path class="cls-1" d="M80.27,46.94c.29,11.12,.57,22.23,.86,33.35-1.75-.01-16.21-.24-25.26-5.91-2.06-1.29-5.11-3.66-7.34-5.53-1.57-1.32-3.74-3.22-6.05-6.06-2.57-3.14-2.91-4.48-3.03-5.39-.05-.36-.41-3.44,1.54-5.82,1.44-1.76,3.27-2.07,3.98-2.18,3.02-.47,5.46,1.63,5.75,1.88,1.37,1.19,1.6,2.23,2.51,2.23,1.07,0,1.32-1.42,2.84-2.65,2.3-1.86,5.13-1.37,5.45-1.3,.65,.13,3.82,.87,4.98,3.86,.12,.3,.61,1.65,.21,4.06-.51,3.08-1.99,5.07-4.55,8.33-2.57,3.27-4.73,5.93-6.3,7.84"/>
  <rect class="cls-2" x="47.04" y="32.4" width="5.17" height="4.99"/>
  <rect class="cls-2" x="54.53" y="32.52" width="5.17" height="4.99"/>
  <rect class="cls-2" x="54.64" y="38.66" width="5.17" height="4.99"/>
  <rect class="cls-2" x="46.93" y="38.66" width="5.17" height="4.99"/>
</svg>